{"title":"A Gift Horse 2015 Movies DVDRip XviD AAC New +Sample ~ ☻rDX☻","uid":13865062,"size":739078599,"categoryP":"video","categoryS":"movies","magnet":"?xt=urn:btih:565949c563d19ffeacf95b1c02994c33dc5cc44c&amp;dn=A+Gift+Horse+2015+Movies+DVDRip+XviD+AAC+New+%2BSample+%7E+%E2%98%BBrDX%E2%98%BB&amp;tr=udp%3A%2F%2Ftracker.leechers-paradise.org%3A6969&amp;tr=udp%3A%2F%2Fzer0day.ch%3A1337&amp;tr=udp%3A%2F%2Fopen.demonii.com%3A1337&amp;tr=udp%3A%2F%2Ftracker.coppersurfer.tk%3A6969&amp;tr=udp%3A%2F%2Fexodus.desync.com%3A6969","seeders":0,"leechers":0,"uploader":"basicssom","files":2,"time":1458066161,"description":"----------------------------------------------------------------\r\nA Gift Horse 2015 English Movies DVDRip XviD AAC New Source with Sample ~ ☻rDX☻\r\n\r\nSCREEN SHOTS &amp; POSTER:\r\n  \nhttp://mobileshosting.com/2016/3/AGiftHorse/index.htm  \nhttp://mobileshosting.com/2016/3/AGiftHorse/1.html  \nhttp://mobileshosting.com/2016/3/AGiftHorse/2.html  \nhttp://mobileshosting.com/2016/3/AGiftHorse/3.html  \nhttp://mobileshosting.com/2016/3/AGiftHorse/4.html  \nhttp://mobileshosting.com/2016/3/AGiftHorse/5.html  \nhttp://mobileshosting.com/2016/3/AGiftHorse/6.html  \nhttp://mobileshosting.com/2016/3/AGiftHorse/7.html  \nhttp://mobileshosting.com/2016/3/AGiftHorse/8.html  \nhttp://mobileshosting.com/2016/3/AGiftHorse/9.html  \nhttp://mobileshosting.com/2016/3/AGiftHorse/10.html\r\n\r\nFormat                                   : Matroska\r\nFormat version                           : Version 4 / Version 2\r\nFile size                                : 694 MiB\r\nDuration                                 : 1h 19mn\r\nOverall bit rate                         : 1 219 Kbps\r\nMovie name                               : A Gift Horse 2015 English Movies DVDRip XviD AAC New Source ☻rDX☻\r\n\r\nVideo\r\nID                                       : 1\r\nFormat                                   : MPEG-4 Visual\r\nFormat profile                           : Advanced   \r\nFormat settings, BVOP                    : Yes\r\nFormat settings, QPel                    : No\r\nFormat settings, GMC                     : No warppoints\r\nFormat settings, Matrix                  : Default (H.263)\r\nCodec ID                                 : V_MS/VFW/FOURCC / XVID\r\nCodec ID/Hint                            : XviD\r\nDuration                                 : 1h 19mn\r\nBit rate                                 : 1 067 Kbps\r\nWidth                                    : 640 pixels\r\nHeight                                   : 352 pixels\r\nDisplay aspect ratio                     : 16:9\r\nFrame rate mode                          : Constant\r\nFrame rate                               : 25.000 fps\r\nColor space                              : YUV\r\nChroma subsampling                       : 4:2:0\r\nBit depth                                : 8 bits\r\nScan type                                : Progressive\r\nCompression mode                         : Lossy\r\nBits/(Pixel*Frame)                       : 0.189\r\nStream size                              : 608 MiB (88%)\r\nTitle                                    : ☻rDX☻\r\nWriting library                          : XviD 67\r\nDefault                                  : Yes\r\nForced                                   : No\r\n\r\nAudio\r\nID                                       : 2\r\nFormat                                   : MPEG Audio\r\nFormat version                           : Version 1\r\nFormat profile                           : Layer 3\r\nMode                                     : Joint stereo\r\nMode extension                           : MS Stereo\r\nCodec ID                                 : A_MPEG/L3\r\nCodec ID/Hint                            : MP3\r\nDuration                                 : 1h 19mn\r\nBit rate mode                            : Constant\r\nBit rate                                 : 128 Kbps\r\nChannel(s)                               : 2 channels\r\nSampling rate                            : 48.0 KHz\r\nCompression mode                         : Lossy\r\nStream size                              : 72.9 MiB (10%)\r\nTitle                                    : ☻rDX☻\r\nWriting library                          : LAME3.99r\r\nEncoding settings                        : -m j -V 4 -q 3 -lowpass 17 -b 128\r\nDefault                                  : Yes\r\nForced                                   : No\r\n\r\nIMDB                                      \nhttp://www.imdb.com/title/tt3954294/","torrent":{"xt":"urn:btih:565949c563d19ffeacf95b1c02994c33dc5cc44c","amp;dn":"A+Gift+Horse+2015+Movies+DVDRip+XviD+AAC+New+%2BSample+%7E+%E2%98%BBrDX%E2%98%BB","amp;tr":["udp%3A%2F%2Ftracker.leechers-paradise.org%3A6969","udp%3A%2F%2Fzer0day.ch%3A1337","udp%3A%2F%2Fopen.demonii.com%3A1337","udp%3A%2F%2Ftracker.coppersurfer.tk%3A6969","udp%3A%2F%2Fexodus.desync.com%3A6969"],"infoHash":"565949c563d19ffeacf95b1c02994c33dc5cc44c","infoHashBuffer":{"type":"Buffer","data":[86,89,73,197,99,209,159,254,172,249,91,28,2,153,76,51,220,92,196,76]},"announce":[],"urlList":[]}}